<svg width="32" height="32" viewBox="0 0 32 32" fill="none" xmlns="http://www.w3.org/2000/svg">
<g clip-path="url(#clip0_164_1056)">
<path d="M28 4H4C2.53334 4 1.33334 5.2 1.33334 6.66667V25.3333C1.33334 26.8 2.53334 28 4 28H28C29.4667 28 30.6667 26.8 30.6667 25.3333V6.66667C30.6667 5.2 29.4667 4 28 4ZM28 25.3333H4V6.66667H28V25.3333ZM10.6667 20C10.6667 17.7867 12.4533 16 14.6667 16C15.1333 16 15.5867 16.0933 16 16.24V8H22.6667V10.6667H18.6667V20.04C18.64 22.2267 16.8667 24 14.6667 24C12.4533 24 10.6667 22.2133 10.6667 20Z" fill="#323232"/>
</g>
<defs>
<clipPath id="clip0_164_1056">
<rect width="32" height="32" fill="white"/>
</clipPath>
</defs>
</svg>
