<svg width="24" height="24" viewBox="0 0 24 24" fill="none" xmlns="http://www.w3.org/2000/svg">
<path fill-rule="evenodd" clip-rule="evenodd" d="M13.8236 5.38949H5.55264V18.7964H18.9595V8.39972L17.6095 7.99472V17.4464H6.90264V6.73949H13.8236V5.38949Z" fill="black"/>
<path d="M5.08675 8.36881H2.85226V21.7757H16.2592V19.5412H14.9092V20.4257H4.20226V9.71881H5.08675V8.36881Z" fill="black"/>
<path fill-rule="evenodd" clip-rule="evenodd" d="M20.7829 3.78195L15.6622 2.24574C15.5072 2.19921 15.3393 2.22871 15.2094 2.3253C15.0795 2.42189 15.003 2.57419 15.0029 2.73605V9.66562C13.9222 8.699 12.3128 8.61949 11.1421 9.47487C9.97134 10.3303 9.55796 11.8877 10.1504 13.2111C10.7429 14.5344 12.1798 15.2635 13.5977 14.96C15.0155 14.6566 16.0282 13.4032 16.0271 11.9533V6.49656L20.4885 7.83498C20.6435 7.88151 20.8114 7.85201 20.9413 7.75542C21.0711 7.65884 21.1477 7.50653 21.1477 7.34467V4.27226C21.1477 4.04621 20.9994 3.84694 20.7829 3.78195Z" fill="black"/>
</svg>
