<svg width="32" height="33" viewBox="0 0 32 33" fill="none" xmlns="http://www.w3.org/2000/svg">
<g clip-path="url(#clip0_129_3180)">
<path d="M5.33334 14.5C4.22668 14.5 3.33334 15.3933 3.33334 16.5C3.33334 17.6067 4.22668 18.5 5.33334 18.5C6.44001 18.5 7.33334 17.6067 7.33334 16.5C7.33334 15.3933 6.44001 14.5 5.33334 14.5ZM5.33334 6.5C4.22668 6.5 3.33334 7.39333 3.33334 8.5C3.33334 9.60667 4.22668 10.5 5.33334 10.5C6.44001 10.5 7.33334 9.60667 7.33334 8.5C7.33334 7.39333 6.44001 6.5 5.33334 6.5ZM5.33334 22.5C4.22668 22.5 3.33334 23.4067 3.33334 24.5C3.33334 25.5933 4.24001 26.5 5.33334 26.5C6.42668 26.5 7.33334 25.5933 7.33334 24.5C7.33334 23.4067 6.44001 22.5 5.33334 22.5ZM9.33334 25.8333H28V23.1667H9.33334V25.8333ZM9.33334 17.8333H28V15.1667H9.33334V17.8333ZM9.33334 7.16667V9.83333H28V7.16667H9.33334Z" fill="#323232"/>
</g>
<defs>
<clipPath id="clip0_129_3180">
<rect width="32" height="32" fill="white" transform="translate(0 0.5)"/>
</clipPath>
</defs>
</svg>
