<svg width="37" height="35" viewBox="0 0 37 35" fill="none" xmlns="http://www.w3.org/2000/svg">
<path fill-rule="evenodd" clip-rule="evenodd" d="M32.5 3.22853V31.7713C32.4892 32.8001 31.9247 33.7431 31.0231 34.2388C30.1215 34.7344 29.0228 34.7056 28.1484 34.1635L6.85 20.8433V33.1749C6.85 33.9619 6.21201 34.5999 5.425 34.5999C4.63799 34.5999 4 33.9619 4 33.1749V1.8249C4 1.0379 4.63799 0.399902 5.425 0.399902C6.21201 0.399902 6.85 1.0379 6.85 1.8249V14.1565L28.1484 0.836309C29.0219 0.287994 30.1239 0.256062 31.0276 0.75288C31.9314 1.2497 32.4949 2.19724 32.5 3.22853Z" fill="#151515"/>
</svg>
