<svg width="25" height="24" viewBox="0 0 25 24" fill="none" xmlns="http://www.w3.org/2000/svg">
<g clip-path="url(#clip0_85_837)">
<path fill-rule="evenodd" clip-rule="evenodd" d="M2.8125 12C2.81663 8.27379 5.83629 5.25413 9.5625 5.25H19.7522L18.7819 4.28062C18.4888 3.98757 18.4888 3.51243 18.7819 3.21937C19.0749 2.92632 19.5501 2.92632 19.8431 3.21937L22.0931 5.46938C22.234 5.61005 22.3131 5.80094 22.3131 6C22.3131 6.19906 22.234 6.38995 22.0931 6.53062L19.8431 8.78063C19.5501 9.07368 19.0749 9.07368 18.7819 8.78063C18.4888 8.48757 18.4888 8.01243 18.7819 7.71938L19.7522 6.75H9.5625C6.66429 6.7531 4.3156 9.10179 4.3125 12C4.3125 12.4142 3.97671 12.75 3.5625 12.75C3.14829 12.75 2.8125 12.4142 2.8125 12ZM21.5625 11.25C21.1483 11.25 20.8125 11.5858 20.8125 12C20.8094 14.8982 18.4607 17.2469 15.5625 17.25H5.37281L6.34312 16.2806C6.5327 16.0911 6.60674 15.8147 6.53735 15.5558C6.46796 15.2968 6.26569 15.0945 6.00672 15.0252C5.74776 14.9558 5.47145 15.0298 5.28188 15.2194L3.03187 17.4694C2.89104 17.6101 2.81191 17.8009 2.81191 18C2.81191 18.1991 2.89104 18.3899 3.03187 18.5306L5.28188 20.7806C5.47145 20.9702 5.74776 21.0442 6.00672 20.9748C6.26569 20.9055 6.46796 20.7032 6.53735 20.4442C6.60674 20.1853 6.5327 19.9089 6.34312 19.7194L5.37281 18.75H15.5625C19.2887 18.7459 22.3084 15.7262 22.3125 12C22.3125 11.5858 21.9767 11.25 21.5625 11.25Z" fill="black" fill-opacity="0.8"/>
</g>
<defs>
<clipPath id="clip0_85_837">
<rect width="24" height="24" fill="white" transform="translate(0.5625)"/>
</clipPath>
</defs>
</svg>
