<svg width="25" height="24" viewBox="0 0 25 24" fill="none" xmlns="http://www.w3.org/2000/svg">
<g clip-path="url(#clip0_85_822)">
<path fill-rule="evenodd" clip-rule="evenodd" d="M22.7181 16.7194C22.859 16.8601 22.9381 17.0509 22.9381 17.25C22.9381 17.4491 22.859 17.6399 22.7181 17.7806L20.4681 20.0306C20.1751 20.3237 19.6999 20.3237 19.4069 20.0306C19.1138 19.7376 19.1138 19.2624 19.4069 18.9694L20.3772 18H19.2756C17.0961 17.9982 15.0512 16.9459 13.7828 15.1734L9.87156 9.69844C8.885 8.31997 7.29451 7.50151 5.59937 7.5H3.4375C3.02329 7.5 2.6875 7.16421 2.6875 6.75C2.6875 6.33579 3.02329 6 3.4375 6H5.59937C7.77887 6.00181 9.82384 7.05414 11.0922 8.82656L15.0034 14.3016C15.99 15.68 17.5805 16.4985 19.2756 16.5H20.3772L19.4069 15.5306C19.1138 15.2376 19.1138 14.7624 19.4069 14.4694C19.6999 14.1763 20.1751 14.1763 20.4681 14.4694L22.7181 16.7194ZM13.8438 10.0312C14.0056 10.1469 14.2068 10.1935 14.403 10.1608C14.5992 10.1281 14.7744 10.0187 14.89 9.85688L15.0025 9.70031C15.9888 8.32086 17.5798 7.50164 19.2756 7.5H20.3772L19.4069 8.46937C19.1138 8.76243 19.1138 9.23757 19.4069 9.53063C19.6999 9.82368 20.1751 9.82368 20.4681 9.53063L22.7181 7.28062C22.859 7.13995 22.9381 6.94906 22.9381 6.75C22.9381 6.55094 22.859 6.36005 22.7181 6.21938L20.4681 3.96937C20.2786 3.7798 20.0022 3.70576 19.7433 3.77515C19.4843 3.84454 19.282 4.04681 19.2127 4.30578C19.1433 4.56474 19.2173 4.84105 19.4069 5.03062L20.3772 6H19.2756C17.0961 6.00181 15.0512 7.05414 13.7828 8.82656L13.6703 8.98312C13.554 9.14501 13.5069 9.34653 13.5395 9.54319C13.572 9.73985 13.6815 9.91546 13.8438 10.0312ZM11.0312 13.9688C10.8694 13.8531 10.6682 13.8065 10.472 13.8392C10.2758 13.8719 10.1006 13.9813 9.985 14.1431L9.8725 14.2997C8.88615 15.6791 7.29518 16.4984 5.59937 16.5H3.4375C3.02329 16.5 2.6875 16.8358 2.6875 17.25C2.6875 17.6642 3.02329 18 3.4375 18H5.59937C7.77887 17.9982 9.82384 16.9459 11.0922 15.1734L11.2047 15.0169C11.321 14.855 11.3681 14.6535 11.3355 14.4568C11.303 14.2602 11.1935 14.0845 11.0312 13.9688Z" fill="black" fill-opacity="0.8"/>
</g>
<defs>
<clipPath id="clip0_85_822">
<rect width="24" height="24" fill="white" transform="translate(0.4375)"/>
</clipPath>
</defs>
</svg>
